<svg width="381" height="124" viewBox="0 0 381 124" fill="none" xmlns="http://www.w3.org/2000/svg">
<path d="M34.176 48.904C38.08 48.904 41.536 49.832 44.544 51.688C47.616 53.48 49.984 56.104 51.648 59.56C53.312 62.952 54.144 66.952 54.144 71.56C54.144 76.68 53.216 81.224 51.36 85.192C49.504 89.16 46.88 92.264 43.488 94.504C40.096 96.68 36.224 97.768 31.872 97.768C28.416 97.768 25.408 97.064 22.848 95.656C20.288 94.248 18.272 92.232 16.8 89.608L16.608 91.816C16.48 93.608 15.84 95.016 14.688 96.04C13.536 97.064 12.064 97.576 10.272 97.576C8.48 97.576 7.072 97.064 6.048 96.04C5.088 95.016 4.64 93.608 4.704 91.816L9.312 34.312C9.376 32.648 10.016 31.336 11.232 30.376C12.512 29.352 14.048 28.84 15.84 28.84C17.632 28.84 19.008 29.32 19.968 30.28C20.928 31.24 21.376 32.52 21.312 34.12L19.488 56.104C21.024 53.8 23.072 52.04 25.632 50.824C28.256 49.544 31.104 48.904 34.176 48.904ZM29.76 88.456C33.6 88.456 36.608 87.016 38.784 84.136C41.024 81.192 42.144 77.192 42.144 72.136C42.144 67.656 41.12 64.2 39.072 61.768C37.024 59.336 34.112 58.12 30.336 58.12C26.56 58.12 23.552 59.592 21.312 62.536C19.136 65.48 18.048 69.448 18.048 74.44C18.048 79.048 19.04 82.536 21.024 84.904C23.072 87.272 25.984 88.456 29.76 88.456ZM105.368 71.464C105.368 72.808 104.984 73.864 104.216 74.632C103.512 75.336 102.584 75.688 101.432 75.688H72.9203C73.1123 79.912 74.2963 83.112 76.4723 85.288C78.7123 87.464 81.8483 88.552 85.8802 88.552C88.1203 88.552 90.1363 88.296 91.9283 87.784C93.7843 87.208 95.6083 86.376 97.4003 85.288C98.2323 84.84 99.0323 84.616 99.8003 84.616C100.888 84.616 101.72 85.032 102.296 85.864C102.936 86.632 103.256 87.592 103.256 88.744C103.256 90.6 102.456 92.136 100.856 93.352C99.1283 94.632 96.8243 95.688 93.9443 96.52C91.1283 97.352 88.1843 97.768 85.1123 97.768C80.3123 97.768 76.1203 96.84 72.5363 94.984C68.9523 93.064 66.1683 90.376 64.1843 86.92C62.2643 83.464 61.3043 79.432 61.3043 74.824C61.3043 69.832 62.2963 65.384 64.2803 61.48C66.2643 57.512 69.0483 54.44 72.6323 52.264C76.2163 50.024 80.3123 48.904 84.9203 48.904C91.4483 48.904 96.4723 50.856 99.9923 54.76C103.576 58.664 105.368 64.232 105.368 71.464ZM85.4003 57.352C78.6163 57.352 74.5843 61.32 73.3043 69.256H95.1923C95.2563 65.352 94.4243 62.408 92.6963 60.424C90.9683 58.376 88.5363 57.352 85.4003 57.352ZM129.12 79.144C129.056 79.528 129.024 80.104 129.024 80.872C129.024 83.432 129.6 85.384 130.752 86.728C131.968 88.072 133.664 88.744 135.84 88.744C136.416 88.744 137.088 88.712 137.856 88.648C138.688 88.52 139.36 88.456 139.872 88.456C140.768 88.456 141.472 88.808 141.984 89.512C142.496 90.216 142.752 91.176 142.752 92.392C142.752 94.376 142.048 95.752 140.64 96.52C139.232 97.288 136.768 97.672 133.248 97.672C128.064 97.672 124.064 96.296 121.248 93.544C118.432 90.792 117.024 86.888 117.024 81.832C117.024 80.68 117.056 79.816 117.12 79.24L118.656 59.08H113.952C112.352 59.08 111.104 58.728 110.208 58.024C109.312 57.256 108.864 56.168 108.864 54.76C108.864 51.624 110.752 50.056 114.528 50.056H119.424L120.096 41.224C120.224 39.496 120.864 38.152 122.016 37.192C123.168 36.168 124.672 35.656 126.528 35.656C128.384 35.656 129.792 36.168 130.752 37.192C131.776 38.152 132.224 39.528 132.096 41.32L131.424 50.056H139.488C141.088 50.056 142.304 50.44 143.136 51.208C144.032 51.912 144.48 52.936 144.48 54.28C144.48 57.48 142.624 59.08 138.912 59.08H130.656L129.12 79.144ZM165.134 97.768C162.19 97.768 159.246 97.416 156.302 96.712C153.422 96.008 150.862 95.016 148.622 93.736C146.51 92.648 145.454 91.016 145.454 88.84C145.454 87.624 145.838 86.568 146.605 85.672C147.374 84.776 148.334 84.328 149.486 84.328C150.254 84.328 151.086 84.584 151.982 85.096C156.398 87.656 161.102 88.936 166.094 88.936C171.918 88.936 174.83 87.272 174.83 83.944C174.83 82.344 174.03 81.128 172.43 80.296C170.83 79.4 168.334 78.472 164.942 77.512C161.55 76.552 158.766 75.624 156.59 74.728C154.478 73.768 152.654 72.392 151.118 70.6C149.582 68.744 148.846 66.344 148.91 63.4C149.038 58.984 150.958 55.464 154.67 52.84C158.382 50.216 163.31 48.904 169.454 48.904C172.014 48.904 174.638 49.288 177.326 50.056C180.078 50.76 182.318 51.72 184.046 52.936C185.774 54.024 186.638 55.528 186.638 57.448C186.638 58.664 186.254 59.72 185.486 60.616C184.782 61.448 183.886 61.864 182.798 61.864C182.03 61.864 181.198 61.608 180.302 61.096C176.334 58.792 172.43 57.64 168.59 57.64C165.774 57.64 163.598 58.088 162.062 58.984C160.59 59.88 159.854 61.192 159.854 62.92C159.854 64.52 160.654 65.768 162.254 66.664C163.854 67.496 166.35 68.392 169.742 69.352C173.134 70.312 175.886 71.272 177.998 72.232C180.11 73.128 181.934 74.472 183.47 76.264C185.006 78.056 185.774 80.392 185.774 83.272C185.774 87.816 183.95 91.368 180.302 93.928C176.654 96.488 171.598 97.768 165.134 97.768Z" fill="#118AB2"/>
<path d="M217.856 97.864C212.8 97.864 208.192 97.352 204.032 96.328C199.872 95.24 196.448 93.832 193.76 92.104C192.672 91.336 191.84 90.44 191.264 89.416C190.688 88.328 190.4 87.24 190.4 86.152C190.4 84.552 190.88 83.176 191.84 82.024C192.8 80.872 194.048 80.296 195.584 80.296C196.864 80.296 198.144 80.68 199.424 81.448C201.664 82.856 204.416 84.008 207.68 84.904C211.008 85.8 214.592 86.248 218.432 86.248C222.592 86.248 225.76 85.608 227.936 84.328C230.176 83.048 231.296 81.224 231.296 78.856C231.296 77.256 230.688 75.912 229.472 74.824C228.32 73.672 226.816 72.744 224.96 72.04C223.104 71.336 220.576 70.504 217.376 69.544C212.64 68.136 208.768 66.792 205.76 65.512C202.816 64.168 200.256 62.184 198.08 59.56C195.968 56.936 194.912 53.544 194.912 49.384C194.912 45.224 196.064 41.576 198.368 38.44C200.672 35.24 203.936 32.776 208.16 31.048C212.384 29.32 217.312 28.456 222.944 28.456C227.68 28.456 232.096 29.032 236.192 30.184C240.288 31.336 243.552 32.904 245.984 34.888C247.584 36.104 248.384 37.768 248.384 39.88C248.384 41.48 247.872 42.888 246.848 44.104C245.824 45.32 244.512 45.928 242.912 45.928C241.568 45.928 240.224 45.48 238.88 44.584C236.896 43.304 234.464 42.248 231.584 41.416C228.704 40.52 225.728 40.072 222.656 40.072C218.624 40.072 215.456 40.776 213.152 42.184C210.912 43.592 209.792 45.544 209.792 48.04C209.792 49.768 210.4 51.208 211.616 52.36C212.896 53.512 214.464 54.472 216.32 55.24C218.24 55.944 220.864 56.776 224.192 57.736C228.8 59.08 232.576 60.424 235.52 61.768C238.464 63.048 240.96 64.936 243.008 67.432C245.12 69.928 246.176 73.192 246.176 77.224C246.176 83.752 243.68 88.84 238.688 92.488C233.76 96.072 226.816 97.864 217.856 97.864ZM261.571 97.576C259.459 97.576 257.731 97 256.387 95.848C255.107 94.696 254.563 93 254.755 90.76L257.539 55.72C257.731 53.48 258.563 51.784 260.035 50.632C261.571 49.48 263.363 48.904 265.411 48.904C267.459 48.904 269.123 49.48 270.403 50.632C271.683 51.784 272.227 53.48 272.035 55.72L269.251 90.76C269.059 93 268.227 94.696 266.755 95.848C265.347 97 263.619 97.576 261.571 97.576ZM266.563 41.224C264.003 41.224 261.987 40.584 260.515 39.304C259.043 37.96 258.307 36.168 258.307 33.928C258.307 31.688 259.043 29.928 260.515 28.648C261.987 27.368 264.003 26.728 266.563 26.728C269.059 26.728 271.043 27.4 272.515 28.744C274.051 30.024 274.819 31.752 274.819 33.928C274.819 36.168 274.083 37.96 272.611 39.304C271.139 40.584 269.123 41.224 266.563 41.224ZM341.117 48.712C346.045 48.712 349.789 50.152 352.349 53.032C354.909 55.912 356.189 60.136 356.189 65.704C356.189 67.112 356.157 68.168 356.093 68.872L354.365 90.76C354.173 93.064 353.373 94.792 351.965 95.944C350.557 97.032 348.797 97.576 346.685 97.576C344.573 97.576 342.845 97 341.501 95.848C340.221 94.696 339.677 93 339.869 90.76L341.597 69.256C341.661 68.808 341.693 68.168 341.693 67.336C341.693 62.472 339.581 60.04 335.357 60.04C329.853 60.04 326.781 63.816 326.141 71.368L324.605 90.76C324.413 93 323.581 94.696 322.109 95.848C320.701 97 318.973 97.576 316.925 97.576C314.813 97.576 313.085 97 311.741 95.848C310.461 94.696 309.917 93 310.109 90.76L311.837 69.352C311.901 68.904 311.933 68.264 311.933 67.432C311.933 62.504 309.821 60.04 305.597 60.04C300.093 60.04 297.021 63.816 296.381 71.368L294.845 90.76C294.653 93 293.821 94.696 292.349 95.848C290.941 97 289.213 97.576 287.165 97.576C285.053 97.576 283.325 97 281.981 95.848C280.701 94.696 280.157 93 280.349 90.76L283.133 55.528C283.325 53.416 284.189 51.784 285.725 50.632C287.261 49.48 289.053 48.904 291.101 48.904C292.957 48.904 294.461 49.448 295.613 50.536C296.829 51.624 297.405 53.128 297.341 55.048C299.197 52.936 301.277 51.368 303.581 50.344C305.949 49.256 308.637 48.712 311.645 48.712C314.845 48.712 317.597 49.384 319.901 50.728C322.205 52.072 323.933 54.024 325.085 56.584C326.941 54.024 329.245 52.072 331.997 50.728C334.749 49.384 337.789 48.712 341.117 48.712Z" fill="#1EAC35"/>
</svg>
