<?xml version="1.0" standalone="no"?>
<!DOCTYPE svg PUBLIC "-//W3C//DTD SVG 20010904//EN"
 "http://www.w3.org/TR/2001/REC-SVG-20010904/DTD/svg10.dtd">
<svg version="1.0" xmlns="http://www.w3.org/2000/svg"
 width="124.000000pt" height="124.000000pt" viewBox="0 0 124.000000 124.000000"
 preserveAspectRatio="xMidYMid meet">
<metadata>
Created by potrace 1.11, written by Peter Selinger 2001-2013
</metadata>
<g transform="translate(0.000000,124.000000) scale(0.100000,-0.100000)"
fill="#000000" stroke="none">
<path d="M822 944 c-29 -8 -65 -20 -80 -28 -90 -47 -131 -180 -79 -257 33 -49
75 -73 196 -114 60 -20 116 -44 125 -54 27 -30 20 -69 -16 -92 -49 -30 -180
-23 -261 15 -64 30 -88 28 -105 -9 -34 -75 67 -135 238 -140 212 -6 316 66
306 213 -6 100 -46 132 -238 192 -83 27 -118 52 -118 88 0 35 8 46 46 65 47
24 146 16 222 -18 52 -23 67 -26 87 -17 21 10 25 19 25 51 0 37 -4 42 -42 64
-24 14 -59 30 -78 36 -56 17 -170 20 -228 5z"/>
<path d="M116 928 c-9 -14 -17 -63 -21 -123 -3 -55 -8 -118 -10 -140 -8 -77
-15 -161 -21 -250 -3 -49 -6 -92 -7 -95 -3 -17 17 -50 31 -51 9 0 25 -2 34 -4
19 -4 61 42 52 56 -10 16 13 9 27 -8 39 -46 140 -62 214 -33 78 30 135 131
135 239 0 138 -79 231 -196 231 -46 0 -134 -34 -134 -52 0 -4 -5 -8 -11 -8 -5
0 -8 3 -6 8 3 4 8 50 12 102 4 52 9 98 11 101 2 3 -4 15 -12 27 -21 31 -78 30
-98 0z m250 -283 c63 -26 85 -136 44 -220 -30 -63 -90 -84 -158 -56 -81 34
-79 230 3 274 36 18 71 19 111 2z"/>
</g>
</svg>
